<?xml version="1.0" encoding="UTF-8"?>
<svg width="290px" height="248px" viewBox="0 0 290 248" version="1.1" xmlns="http://www.w3.org/2000/svg" xmlns:xlink="http://www.w3.org/1999/xlink">
    <!-- Generator: Sketch 48.2 (47327) - http://www.bohemiancoding.com/sketch -->
    <title>logo icon</title>
    <desc>Created with Sketch.</desc>
    <defs>
        <filter x="-7.0%" y="-4.6%" width="114.0%" height="113.1%" filterUnits="objectBoundingBox" id="filter-1">
            <feOffset dx="0" dy="10" in="SourceAlpha" result="shadowOffsetOuter1"></feOffset>
            <feGaussianBlur stdDeviation="9.5" in="shadowOffsetOuter1" result="shadowBlurOuter1"></feGaussianBlur>
            <feColorMatrix values="0 0 0 0 0   0 0 0 0 0   0 0 0 0 0  0 0 0 0.2 0" type="matrix" in="shadowBlurOuter1" result="shadowMatrixOuter1"></feColorMatrix>
            <feMerge>
                <feMergeNode in="shadowMatrixOuter1"></feMergeNode>
                <feMergeNode in="SourceGraphic"></feMergeNode>
            </feMerge>
        </filter>
    </defs>
    <g id="logo-white-copy" stroke="none" stroke-width="1" fill="none" fill-rule="evenodd" transform="translate(-731.000000, -383.000000)">
        <g id="app-icon--" filter="url(#filter-1)" transform="translate(655.000000, 244.000000)" fill="#000000">
            <g id="logo-icon" transform="translate(77.294118, 137.486239)">
                <path d="M168.340796,70.4232771 C171.862762,66.5662561 180.16608,59.4822737 187.29837,56.0024885 C194.437289,52.5036534 202.285459,50.5097619 210.518084,50.5097619 C218.750709,50.5097619 226.59888,52.1099551 233.737798,54.9991928 C240.876717,57.8947804 247.299755,62.0794126 252.695372,67.2482906 C258.084361,72.4171686 262.465814,78.5766423 265.481792,85.4155632 C268.511027,92.2481341 270.174786,99.772852 270.174786,107.659518 C270.174786,115.546185 268.504398,123.070903 265.481792,129.903474 C262.465814,136.742395 258.097618,142.901868 252.695372,148.070746 C247.306384,153.239624 171.257346,219.063444 164.118427,221.959032 C156.979508,219.063444 116.182023,178.757659 75.7882052,148.070746 C132.453782,129.903474 152.621849,87.6376147 168.340796,70.4232771 Z" id="Combined-Shape-Copy-31" fill-rule="nonzero"></path>
                <g id="Group-2" transform="translate(82.907457, 74.444829) rotate(-12.000000) translate(-82.907457, -74.444829) translate(11.907457, 13.944829)">
                    <path d="M141.389524,74.355519 C128.354917,85.9007939 112.741635,96.3068666 94.5496768,105.573737 C82.2958626,111.815754 55.5664712,120.178876 41.9135954,120.601917 C35.397352,112.924863 32.9347689,99.7152481 33.3378716,92.431169 C33.7323889,85.1496694 35.6110924,77.8664132 39.1047846,71.0096562 C42.5984768,64.1528992 47.3807082,58.3490643 53.045446,53.7528763 C58.701452,49.145285 65.2455904,45.7342991 72.2283156,43.6316101 C79.2168132,41.5318622 86.6640278,40.7437141 94.1636337,41.393925 C101.660427,42.0496566 109.203838,44.140806 116.373186,47.7937709 C123.542533,51.4467357 130.725115,58.1985384 135.392074,64.4081328 C138.505157,68.5348601 140.504307,71.8506555 141.389524,74.355519 Z M110.264986,32.0804977 C107.430964,31.4781077 105.473301,28.4947002 106.069994,25.6874817 L109.799323,8.14236584 C110.396016,5.33514731 113.397891,3.40592234 116.231914,4.00831234 C119.065936,4.61070233 121.023599,7.59410979 120.426906,10.4013283 L116.697577,27.9464441 C116.100884,30.7536627 113.099008,32.6828876 110.264986,32.0804977 Z M39.1284026,49.6323705 C37.0864487,50.3755809 35.0167299,49.9836022 33.2595717,48.3325659 L20.4409117,34.2916953 C18.4383597,31.9664452 18.4777615,28.8979847 20.7095791,26.5586098 C23.0640936,24.5563419 26.1547894,24.5767154 28.497667,26.7780971 L41.316327,40.8189677 C43.318879,43.1442178 43.2794771,46.2126783 41.0476595,48.5520532 C40.3670082,48.79979 39.8090538,49.3846337 39.1284026,49.6323705 Z M71.8931264,29.2894089 C69.7531373,28.9156399 68.1584819,27.5442909 67.4658252,25.2376568 L63.4141203,6.68047211 C62.8472429,3.66725486 64.4203545,1.02780666 67.5252319,0.112999011 C70.5672196,-0.448517045 73.2318695,1.10971644 74.1554118,4.18522853 L78.2071167,22.7424133 C78.7739941,25.7556305 77.2008825,28.3950787 74.0960051,29.3098864 C73.3826754,29.1852967 72.6064561,29.4139986 71.8931264,29.2894089 Z M24.9797272,88.0875538 C23.6184247,88.5830274 22.1344252,88.7413941 20.7453577,88.1016786 L3.15050184,79.9986152 C0.372366705,78.7191842 -0.731905232,75.685222 0.573867317,72.9193701 C1.87963987,70.1535182 4.94257063,69.0387026 7.72070576,70.3181336 L25.3155616,78.421197 C28.0936967,79.700628 29.1979686,82.7345902 27.8921961,85.5004421 C27.5796355,86.7594997 26.3410298,87.5920802 24.9797272,88.0875538 Z" id="Combined-Shape"></path>
                </g>
            </g>
        </g>
    </g>
</svg>