<?xml version="1.0" encoding="UTF-8"?>
<svg width="500px" height="307px" viewBox="0 0 500 307" version="1.1" xmlns="http://www.w3.org/2000/svg" xmlns:xlink="http://www.w3.org/1999/xlink">
    <!-- Generator: Sketch 48.2 (47327) - http://www.bohemiancoding.com/sketch -->
    <title>lify logo 500</title>
    <desc>Created with Sketch.</desc>
    <defs></defs>
    <g id="logo-black-" stroke="none" stroke-width="1" fill="none" fill-rule="evenodd" transform="translate(-642.000000, -249.000000)">
        <g id="lify-logos" transform="translate(642.000000, 247.000000)" fill="#32305C">
            <g id="lify-logo-500">
                <path d="M0,224.737705 L0,12.3333333 L47.6366843,12.3333333 L47.6366843,224.737705 L0,224.737705 Z M106.666667,225.830601 L106.666667,79 L154.303351,79 L154.303351,225.830601 L106.666667,225.830601 Z M312.962963,12.2786885 L312.962963,50.9672131 C306.872398,48.5628295 301.216957,47.3606557 295.996473,47.3606557 C287.948225,47.3606557 281.96651,49.2185607 278.051146,52.9344262 C274.135783,56.6502918 272.178131,63.2076033 272.178131,72.6065574 L272.178131,78.8360656 L303.174603,78.8360656 L303.174603,113.918033 L272.178131,113.918033 L272.178131,225.666667 L224.867725,225.666667 L224.867725,113.918033 L203.333333,113.918033 L203.333333,78.8360656 L224.867725,78.8360656 L224.867725,72.6065574 C224.867725,52.4971672 230.468786,36.8689082 241.671076,25.7213115 C252.873366,14.5737148 268.371447,9 288.165785,9 C298.389234,9 306.654877,10.0928852 312.962963,12.2786885 Z M393.633157,241.459016 L329.68254,77.852459 L381.560847,77.852459 L399.506173,129.655738 C404.074097,142.989138 407.826264,154.464433 410.762787,164.081967 C413.699309,173.699502 415.493824,180.038236 416.146384,183.098361 L417.12522,187.688525 C419.517943,178.945311 425.3909,159.601243 434.744268,129.655738 L451.058201,77.852459 L500,77.852459 L440.291005,239.163934 C423.10691,285.721544 396.89612,309 361.657848,309 C354.914722,309 348.824248,308.453557 343.386243,307.360656 L343.386243,269.327869 C346.866566,270.20219 350.564354,270.639344 354.479718,270.639344 C372.533894,270.639344 385.58491,260.912666 393.633157,241.459016 Z" id="lify-copy-3"></path>
                <g id="heart" transform="translate(90.000000, 0.000000)">
                    <path d="M42.2303223,18.0302424 C43.1034763,17.0660977 45.1620073,15.2953052 46.9302209,14.4254587 C48.7000778,13.5508502 50.6457701,13.0524345 52.686775,13.0524345 C54.7277799,13.0524345 56.6734722,13.4524369 58.4433291,14.1746635 C60.2131861,14.8984774 61.8055643,15.9445155 63.1432277,17.2365868 C64.4792479,18.5286581 65.5654832,20.06835 66.3131943,21.7778842 C67.0641921,23.485831 67.4766657,25.3667948 67.4766657,27.3382353 C67.4766657,29.3096758 67.0625488,31.1906396 66.3131943,32.8985865 C65.5654832,34.6081206 64.4825345,36.1478125 63.1432277,37.4398838 C61.8072076,38.7319552 42.9533836,55.1860231 41.1835267,55.909837 C39.4136698,55.1860231 29.2992933,45.1107322 19.2849925,37.4398838 C33.3333333,32.8985865 38.3333333,22.3333333 42.2303223,18.0302424 Z" id="Combined-Shape-Copy-31" fill-rule="nonzero"></path>
                    <g id="Group-2" transform="translate(21.736946, 18.761642) rotate(-12.000000) translate(-21.736946, -18.761642) translate(3.403612, 3.761642)">
                        <path d="M33.6062198,16.0661696 C34.7607304,17.6070124 28.8000678,21.53343 23.0034192,24.7558459 C19.9924283,26.4296863 13.596528,28.7342773 10.2056192,28.8511935 C8.59375498,26.9408171 8.13261261,24.9621398 8.23877321,23.1440784 C8.34279958,21.326668 8.81541042,19.5075856 9.68873332,17.7935929 C10.5620562,16.0796002 11.7545,14.627291 13.1651019,13.475614 C14.5735448,12.3210987 16.201552,11.4644554 17.9373907,10.9339303 C19.6746604,10.4041344 21.5247578,10.2012641 23.3866706,10.3572897 C25.2478803,10.5146953 27.1194743,11.0302676 28.8968749,11.9358985 C30.6742756,12.8415293 32.4523876,14.5204575 33.6062198,16.0661696 Z M27.3303978,8.01920478 C26.6277965,7.86986226 26.1435319,7.12517892 26.292688,6.42345476 L27.2249135,2.03767876 C27.3740696,1.3359546 28.1193573,0.85262066 28.8219586,1.00196318 C29.5245599,1.1513057 30.0088245,1.89598904 29.8596684,2.5977132 L28.927443,6.9834892 C28.7782869,7.68521336 28.0329992,8.1685473 27.3303978,8.01920478 Z M9.71055892,12.4092149 C9.20432453,12.5934692 8.69045043,12.4942132 8.25330902,12.0807379 L5.0629966,8.5658326 C4.56451378,7.98382321 4.57226535,7.21755957 5.12456172,6.63481898 C5.7075288,6.13634545 6.47452009,6.14347431 7.05737531,6.69477466 L10.2476877,10.20968 C10.7461706,10.7916894 10.738419,11.557953 10.1861226,12.1406936 C10.0173778,12.2021117 9.87930372,12.3477968 9.71055892,12.4092149 Z M17.8235042,7.32151261 C17.2929653,7.22808106 16.8976236,6.88528313 16.7259025,6.30869074 L15.7214173,1.66992652 C15.580879,0.916708589 15.9708796,0.256922201 16.7406304,0.0282465134 C17.4947899,-0.112116404 18.155401,0.277397299 18.3843625,1.04618716 L19.3888477,5.68495137 C19.529386,6.4381693 19.1393854,7.09795569 18.3696346,7.32663138 C18.1927883,7.29548753 18.0003506,7.35265645 17.8235042,7.32151261 Z M6.20139913,22.0243262 C5.86390953,22.1471624 5.49574924,22.1857315 5.15061993,22.0250574 L0.778982078,19.9898525 C0.0887234698,19.6685044 -0.187312859,18.9101008 0.134897312,18.2202442 C0.457107482,17.5303876 1.21645907,17.2540062 1.90671767,17.5753543 L6.27835553,19.6105592 C6.96861414,19.9319073 7.24465047,20.6903109 6.92244029,21.3801675 C6.84570761,21.6943868 6.53888872,21.90149 6.20139913,22.0243262 Z" id="Combined-Shape"></path>
                    </g>
                </g>
            </g>
        </g>
    </g>
</svg>