<?xml version="1.0" encoding="UTF-8"?>
<svg width="250px" height="138px" viewBox="0 0 250 138" version="1.1" xmlns="http://www.w3.org/2000/svg" xmlns:xlink="http://www.w3.org/1999/xlink">
    <!-- Generator: Sketch 48.2 (47327) - http://www.bohemiancoding.com/sketch -->
    <title>LOGO LIFY Copy</title>
    <desc>Created with Sketch.</desc>
    <defs>
        <linearGradient x1="62.8319215%" y1="83.0649214%" x2="36.5388845%" y2="14.6565686%" id="linearGradient-1">
            <stop stop-color="#FFBA4D" offset="0%"></stop>
            <stop stop-color="#FED732" offset="100%"></stop>
        </linearGradient>
    </defs>
    <g id="logo-color-" stroke="none" stroke-width="1" fill="none" fill-rule="evenodd" transform="translate(-646.000000, -603.000000)">
        <g id="Group-3" transform="translate(646.000000, 278.000000)">
            <g id="LOGO-LIFY-Copy" transform="translate(0.000000, 325.000000)">
                <path d="M22.5562378,8.32997988 L22.5562378,106.901408 L0,106.901408 L0,8.32997988 L22.5562378,8.32997988 Z M71.3126223,39.5674044 L71.3126223,106.901408 L48.7563845,106.901408 L48.7563845,39.5674044 L71.3126223,39.5674044 Z M129.119349,39.5674044 L152.928711,39.5674044 L152.928711,58.8651911 L129.119349,58.8651911 L129.119349,106.901408 L106.563111,106.901408 L106.563111,58.8651911 L89.994023,58.8651911 L89.994023,39.5674044 L106.563111,39.5674044 L106.563111,31.5150905 C106.563111,12.0784708 118.955118,0 136.220387,0 C141.650592,0 147.35927,0.69416499 154.181835,2.49899396 L151.118643,21.2414487 C147.916214,20.5472837 143.878369,19.9919517 140.815176,19.9919517 C133.714138,19.9919517 129.119349,24.2957746 129.119349,30.9597586 L129.119349,39.5674044 Z M250,39.5674044 L208.368425,138 L184.698299,138 L197.508015,107.734406 L165.483726,39.5674044 L189.432324,39.5674044 L208.786133,81.0784708 L226.329874,39.5674044 L250,39.5674044 Z" id="lify-copy-26" fill="#645FFF"></path>
                <g id="heart" transform="translate(40.404040, 0.000000)">
                    <path d="M21.3284456,9.54972164 C21.7694325,9.06589632 22.8090946,8.17728042 23.7021318,7.74077561 C24.5959989,7.30188118 25.5786718,7.05176711 26.6094823,7.05176711 C27.6402929,7.05176711 28.6229658,7.2524956 29.5168329,7.61492204 C30.4107,7.97814502 31.2149315,8.50306595 31.8905191,9.15145083 C32.5652767,9.79983571 33.1138804,10.5724811 33.4915123,11.4303564 C33.8708041,12.2874352 34.0791241,13.231337 34.0791241,14.2206417 C34.0791241,15.2099464 33.8699741,16.1538482 33.4915123,17.010927 C33.1138804,17.8688024 32.5669366,18.6414477 31.8905191,19.2898326 C31.2157614,19.9382175 21.6936281,28.195168 20.799761,28.5583909 C19.9058938,28.195168 14.7976229,23.1392038 9.73989522,19.2898326 C16.8350168,17.010927 19.3602694,11.7090909 21.3284456,9.54972164 Z" id="Combined-Shape-Copy-31" fill="#FF4455" fill-rule="nonzero"></path>
                    <g id="Group-2" transform="translate(12.064127, 10.969992) rotate(-12.000000) translate(-12.064127, -10.969992) translate(1.963117, 2.188174)" fill="url(#linearGradient-1)">
                        <path d="M17.7073059,9.32233661 C16.0735471,10.7712423 14.116895,12.0775399 11.8373495,13.2412294 C10.3018839,14.0250721 6.95304235,15.0762313 5.24287406,15.1305463 C4.42737723,14.1685045 4.12014701,12.5123425 4.17131564,11.5989339 C4.22140863,10.6858495 4.45740767,9.77240693 4.89565697,8.91229424 C5.33390628,8.05218154 5.93345731,7.32397798 6.64343693,6.74712264 C7.35232388,6.16883823 8.17234512,5.740517 9.0471812,5.47620604 C9.92274005,5.21226334 10.8556349,5.11274321 11.7949585,5.19357808 C12.7339292,5.27510548 13.678606,5.53661962 14.5762831,5.99400894 C15.4739602,6.45139827 16.3730072,7.29735835 16.957003,8.07556318 C17.3465575,8.59273585 17.5966584,9.00832699 17.7073059,9.32233661 Z M13.8056418,4.02418276 C13.4507927,3.94875725 13.2057928,3.57463922 13.280642,3.22250128 L13.7484497,1.02163914 C13.8232989,0.6695012 14.199285,0.427377826 14.5541341,0.502803341 C14.9089833,0.578228856 15.1539832,0.952346881 15.079134,1.30448482 L14.6113263,3.50534696 C14.5364771,3.8574849 14.160491,4.09960828 13.8056418,4.02418276 Z M4.90039976,6.22617705 C4.64472582,6.31923476 4.38549086,6.26992261 4.16530719,6.06273099 L2.55889604,4.30087282 C2.30793014,4.00910771 2.31263818,3.6242849 2.59197229,3.33106098 C2.88669752,3.08012381 3.27376945,3.08290711 3.56734767,3.3591626 L5.17375882,5.12102077 C5.42472472,5.41278588 5.42001669,5.79760869 5.14068257,6.09083261 C5.05545793,6.12185184 4.9856244,6.19515782 4.90039976,6.22617705 Z M9.00176982,3.67406814 C8.73382085,3.6271825 8.53415335,3.45516026 8.4474255,3.16581572 L7.94010976,0.837999491 C7.86913079,0.460021037 8.06610079,0.128928232 8.45486384,0.014174614 C8.83575245,-0.05626205 9.16939443,0.139203008 9.28503157,0.524995736 L9.79234731,2.85281196 C9.86332628,3.23079041 9.66635629,3.56188322 9.27759323,3.67663684 C9.18827691,3.66100829 9.09108615,3.68969669 9.00176982,3.67406814 Z M3.12867387,11.0502717 C2.95822458,11.1123102 2.77238417,11.1320619 2.59837385,11.0517305 L0.394243177,10.0341997 C0.0462225444,9.8735369 -0.0922975041,9.4929562 0.071029731,9.14617803 C0.234356966,8.79939985 0.617867867,8.6598133 0.9658885,8.82047607 L3.17001918,9.83800694 C3.51803981,9.99866971 3.65655986,10.3792504 3.49323262,10.7260286 C3.45418133,10.8839081 3.29912315,10.9882333 3.12867387,11.0502717 Z" id="Combined-Shape"></path>
                    </g>
                </g>
            </g>
        </g>
    </g>
</svg>