<?xml version="1.0" encoding="UTF-8"?>
<svg width="250px" height="139px" viewBox="0 0 250 139" version="1.1" xmlns="http://www.w3.org/2000/svg" xmlns:xlink="http://www.w3.org/1999/xlink">
    <!-- Generator: Sketch 48.2 (47327) - http://www.bohemiancoding.com/sketch -->
    <title>LOGO LIFY Copy 3</title>
    <desc>Created with Sketch.</desc>
    <defs></defs>
    <g id="logo-black-" stroke="none" stroke-width="1" fill="none" fill-rule="evenodd" transform="translate(-645.000000, -601.000000)">
        <g id="Group-3" transform="translate(645.000000, 278.000000)" fill="#000000">
            <g id="LOGO-LIFY-Copy-3" transform="translate(0.000000, 323.000000)">
                <path d="M22.5293064,8.37021739 L22.5293064,107.41779 L0,107.41779 L0,8.37021739 L22.5293064,8.37021739 Z M71.2274775,39.7585326 L71.2274775,107.41779 L48.6981711,107.41779 L48.6981711,39.7585326 L71.2274775,39.7585326 Z M128.965185,39.7585326 L152.74612,39.7585326 L152.74612,59.1495362 L128.965185,59.1495362 L128.965185,107.41779 L106.435879,107.41779 L106.435879,59.1495362 L89.8865733,59.1495362 L89.8865733,39.7585326 L106.435879,39.7585326 L106.435879,31.6673225 C106.435879,12.1368152 118.81309,0 136.057744,0 C141.481466,0 147.183328,0.697518116 153.997748,2.51106522 L150.938212,21.3440543 C147.739607,20.6465362 143.706583,20.0885217 140.647048,20.0885217 C133.554488,20.0885217 128.965185,24.4131341 128.965185,31.109308 L128.965185,39.7585326 Z M249.701509,39.7585326 L208.119641,138.666601 L184.477776,138.666601 L197.272197,108.254812 L165.286145,39.7585326 L189.206149,39.7585326 L208.53685,81.4701159 L226.059644,39.7585326 L249.701509,39.7585326 Z" id="lify-copy-26"></path>
                <g id="heart" transform="translate(39.007381, 0.503623)">
                    <path d="M21.4864469,9.20901498 C21.9307007,8.71693568 22.9780646,7.81316016 23.8777174,7.36920866 C24.7782063,6.92282676 25.7681588,6.66844579 26.8066057,6.66844579 C27.8450525,6.66844579 28.835005,6.87259867 29.7354939,7.24120804 C30.6359828,7.61062754 31.446172,8.14450353 32.1267644,8.80394974 C32.8065206,9.46339595 33.3591884,10.2492225 33.7396178,11.121733 C34.1217194,11.9934334 34.3315826,12.9534381 34.3315826,13.9596201 C34.3315826,14.9658022 34.1208833,15.9258068 33.7396178,16.7975072 C33.3591884,17.6700177 32.8081928,18.4558443 32.1267644,19.1152905 C31.4470081,19.7747367 21.8543347,28.1725492 20.9538458,28.5419687 C20.0533569,28.1725492 14.9072438,23.0303312 9.81204846,19.1152905 C16.9597308,16.7975072 19.5036904,11.4052227 21.4864469,9.20901498 Z" id="Combined-Shape-Copy-31" fill-rule="nonzero"></path>
                    <g id="Group-2" transform="translate(10.805451, 9.790335) rotate(-12.000000) translate(-10.805451, -9.790335) translate(1.769307, 1.984175)">
                        <path d="M17.858835,9.45595627 C16.2040663,10.9330763 14.2239268,12.2666997 11.9184164,13.4568264 C10.3654612,14.2584769 6.98104554,15.3385523 5.2545942,15.4003628 C4.43518992,14.4270063 4.13153862,12.7470847 4.18675425,11.8197107 C4.24088289,10.8926701 4.48266598,9.96454015 4.92839174,9.08975408 C5.3741175,8.21496802 5.98214579,7.47344927 6.70104949,6.88512849 C7.41885583,6.29536138 8.24825535,5.85738357 9.13234448,5.58567374 C10.0171617,5.3143349 10.9592118,5.2096727 11.907047,5.28805846 C12.8545232,5.36714855 13.8070564,5.62891559 14.7113835,6.08969326 C15.6157106,6.55047093 16.5199033,7.40566998 17.1063489,8.19332269 C17.497545,8.7167685 17.7483736,9.13764636 17.858835,9.45595627 Z M13.904302,4.09283459 C13.5468241,4.01685032 13.3006414,3.63698691 13.3767675,3.27884156 L13.8525559,1.04043311 C13.9286821,0.682287756 14.3080856,0.435396807 14.6655635,0.511381075 C15.0230413,0.587365343 15.2692241,0.967228761 15.193098,1.32537411 L14.7173096,3.56378256 C14.6411834,3.92192791 14.2617799,4.16881886 13.904302,4.09283459 Z M4.94258026,6.33389147 C4.68501229,6.42763854 4.42341126,6.37673666 4.20070516,6.1655613 L2.57511464,4.37065223 C2.32110116,4.07346057 2.32465566,3.68252184 2.60546487,3.38549315 C2.90192777,3.1314726 3.29231279,3.13550095 3.58925426,3.41706809 L5.21484478,5.21197716 C5.46885825,5.50916882 5.46530376,5.90010755 5.18449454,6.19713624 C5.09863855,6.22838527 5.02843625,6.30264244 4.94258026,6.33389147 Z M9.06845503,3.73674708 C8.79852108,3.68906157 8.59737445,3.51410467 8.51000412,3.21982396 L7.99893018,0.852295611 C7.92742539,0.467868913 8.12585455,0.131127724 8.51749756,0.0144164303 C8.9012078,-0.0572218704 9.2373214,0.141577786 9.35381518,0.533952069 L9.86488912,2.90148042 C9.93639391,3.28590711 9.73796475,3.6226483 9.34632174,3.7393596 C9.25634376,3.72346443 9.15843301,3.75264225 9.06845503,3.73674708 Z M3.15686475,11.2417064 C2.98515277,11.3042045 2.7977871,11.3236944 2.62204206,11.2415435 L0.39593818,10.2009653 C0.0444480939,10.0366635 -0.0964350816,9.64959011 0.0672107707,9.29779414 C0.230856623,8.94599817 0.617208577,8.80537756 0.968698663,8.96967938 L3.19480254,10.0102576 C3.54629263,10.1745594 3.6871758,10.5616327 3.52352995,10.9134287 C3.48463502,11.0737022 3.32857673,11.1792084 3.15686475,11.2417064 Z" id="Combined-Shape"></path>
                    </g>
                </g>
            </g>
        </g>
    </g>
</svg>